<svg width="299" height="299" viewBox="0 0 299 299" fill="none" xmlns="http://www.w3.org/2000/svg">
<rect x="0.0195312" width="298.977" height="298.977" rx="100" fill="#2FCACC"/>
<path d="M101.023 135.28H106.943C107.503 135.28 107.783 135.56 107.783 136.12V160.16C107.783 160.72 107.503 161 106.943 161H103.663C103.103 161 102.823 160.72 102.823 160.16V141.2H102.663L98.5827 154.6C98.4227 155.133 98.0894 155.4 97.5827 155.4H94.2227C93.7161 155.4 93.3827 155.133 93.2227 154.6L89.0627 141.16H88.9027V160.16C88.9027 160.48 88.8494 160.707 88.7427 160.84C88.6361 160.947 88.4094 161 88.0627 161H84.7827C84.2227 161 83.9427 160.72 83.9427 160.16V136.12C83.9427 135.56 84.2227 135.28 84.7827 135.28H90.7427C91.1161 135.28 91.3694 135.467 91.5027 135.84L95.7427 149.96H95.9827L100.263 135.84C100.343 135.467 100.596 135.28 101.023 135.28ZM112.766 137.16V133.68C112.766 133.147 113.033 132.88 113.566 132.88H117.046C117.58 132.88 117.846 133.133 117.846 133.64V137.16C117.846 137.693 117.58 137.96 117.046 137.96H113.566C113.033 137.96 112.766 137.693 112.766 137.16ZM112.766 160.16V141.44C112.766 140.88 113.033 140.6 113.566 140.6H117.006C117.566 140.6 117.846 140.88 117.846 141.44V160.16C117.846 160.507 117.78 160.733 117.646 160.84C117.54 160.947 117.34 161 117.046 161H113.606C113.046 161 112.766 160.72 112.766 160.16ZM135.878 161H132.478C131.918 161 131.638 160.72 131.638 160.16V136.12C131.638 135.56 131.918 135.28 132.478 135.28H135.878C136.438 135.28 136.718 135.56 136.718 136.12V145.52C136.718 145.813 136.878 145.96 137.198 145.96H143.958C144.251 145.96 144.398 145.813 144.398 145.52V136.12C144.398 135.56 144.678 135.28 145.238 135.28H148.638C149.198 135.28 149.478 135.56 149.478 136.12V160.16C149.478 160.72 149.198 161 148.638 161H145.238C144.678 161 144.398 160.72 144.398 160.16V150.8C144.398 150.507 144.251 150.36 143.958 150.36H137.198C136.878 150.36 136.718 150.507 136.718 150.8V160.16C136.718 160.72 136.438 161 135.878 161ZM164.045 161H160.485C158.378 161 156.752 160.44 155.605 159.32C154.458 158.2 153.885 156.587 153.885 154.48V147.12C153.885 145.013 154.458 143.4 155.605 142.28C156.752 141.16 158.378 140.6 160.485 140.6H164.045C166.125 140.6 167.738 141.173 168.885 142.32C170.058 143.44 170.645 145.04 170.645 147.12V154.48C170.645 156.56 170.058 158.173 168.885 159.32C167.738 160.44 166.125 161 164.045 161ZM161.245 156.64H163.285C164.138 156.64 164.738 156.467 165.085 156.12C165.458 155.773 165.645 155.173 165.645 154.32V147.28C165.645 146.427 165.458 145.827 165.085 145.48C164.738 145.133 164.138 144.96 163.285 144.96H161.245C160.392 144.96 159.792 145.133 159.445 145.48C159.098 145.827 158.925 146.427 158.925 147.28V154.32C158.925 155.173 159.098 155.773 159.445 156.12C159.792 156.467 160.392 156.64 161.245 156.64ZM178.876 161H175.476C174.916 161 174.636 160.72 174.636 160.16V141.44C174.636 140.88 174.916 140.6 175.476 140.6H178.876C179.436 140.6 179.716 140.88 179.716 141.44V142.76H179.876C180.196 142.12 180.73 141.6 181.476 141.2C182.25 140.8 183.13 140.6 184.116 140.6H185.236C187.556 140.6 189.223 141.453 190.236 143.16C191.143 141.453 192.703 140.6 194.916 140.6H196.076C198.13 140.6 199.676 141.16 200.716 142.28C201.783 143.4 202.316 145.013 202.316 147.12V160.16C202.316 160.72 202.036 161 201.476 161H198.076C197.516 161 197.236 160.72 197.236 160.16V147.36C197.236 146.507 197.063 145.907 196.716 145.56C196.37 145.187 195.77 145 194.916 145H193.916C192.076 145 191.156 146.027 191.156 148.08V160.16C191.156 160.72 190.863 161 190.276 161H186.916C186.356 161 186.076 160.72 186.076 160.16V147.36C186.076 146.507 185.89 145.907 185.516 145.56C185.17 145.187 184.57 145 183.716 145H182.476C180.636 145 179.716 146.013 179.716 148.04V160.16C179.716 160.72 179.436 161 178.876 161ZM221.591 161H212.751C210.644 161 209.017 160.44 207.871 159.32C206.724 158.2 206.151 156.587 206.151 154.48V147.12C206.151 145.013 206.724 143.4 207.871 142.28C209.017 141.16 210.644 140.6 212.751 140.6H215.911C218.017 140.6 219.644 141.16 220.791 142.28C221.937 143.4 222.511 145.013 222.511 147.12V152.2C222.511 152.76 222.231 153.04 221.671 153.04H211.631C211.311 153.04 211.151 153.187 211.151 153.48V154.36C211.151 155.187 211.324 155.787 211.671 156.16C212.044 156.507 212.657 156.68 213.511 156.68H221.591C222.151 156.68 222.431 156.973 222.431 157.56V160.2C222.431 160.493 222.364 160.707 222.231 160.84C222.124 160.947 221.911 161 221.591 161ZM211.631 149.64H217.071C217.364 149.64 217.511 149.493 217.511 149.2V147.28C217.511 146.427 217.337 145.827 216.991 145.48C216.644 145.133 216.044 144.96 215.191 144.96H213.511C212.657 144.96 212.057 145.133 211.711 145.48C211.364 145.827 211.191 146.427 211.191 147.28V149.2C211.191 149.493 211.337 149.64 211.631 149.64Z" fill="#F5F5F5"/>
</svg>
